# xmcd
#
# Track frame offsets: 
#        150
#        151445
#        199998
#
# Disc length: 3685 seconds
#
# Revision: 0
# Processed by: cddbd v1.5.2PL0 Copyright (c) Steve Scherf et al.
# Submitted via: ExactAudioCopy v0.99pb3
#
DISCID=220e6303
DTITLE=Allman Brothers Band - Finger Lakes PAC - Canandaigua, NY - 22.
DTITLE=7.05 Disc 3
DYEAR=2005
DGENRE=Southern Rock
TTITLE0=Instrumental Illness  
TTITLE1=One Way Out  
TTITLE2=Whipping Post  
EXTD=
EXTT0=
EXTT1=
EXTT2=
PLAYORDER=
